<svg width="832" height="373" viewBox="0 0 832 373" fill="none" xmlns="http://www.w3.org/2000/svg">
<path d="M79.2955 357.364V369H77.8864V358.841H77.8182L74.9773 360.727V359.295L77.8864 357.364H79.2955Z" fill="white" fill-opacity="0.5"/>
<path d="M23 335.159C22.1439 335.159 21.4148 334.926 20.8125 334.46C20.2102 333.991 19.75 333.311 19.4318 332.42C19.1136 331.527 18.9545 330.447 18.9545 329.182C18.9545 327.924 19.1136 326.85 19.4318 325.96C19.7538 325.066 20.2159 324.384 20.8182 323.915C21.4242 323.441 22.1515 323.205 23 323.205C23.8485 323.205 24.5739 323.441 25.1761 323.915C25.7822 324.384 26.2443 325.066 26.5625 325.96C26.8845 326.85 27.0455 327.924 27.0455 329.182C27.0455 330.447 26.8864 331.527 26.5682 332.42C26.25 333.311 25.7898 333.991 25.1875 334.46C24.5852 334.926 23.8561 335.159 23 335.159ZM23 333.909C23.8485 333.909 24.5076 333.5 24.9773 332.682C25.447 331.864 25.6818 330.697 25.6818 329.182C25.6818 328.174 25.5739 327.316 25.358 326.608C25.1458 325.9 24.839 325.36 24.4375 324.989C24.0398 324.617 23.5606 324.432 23 324.432C22.1591 324.432 21.5019 324.847 21.0284 325.676C20.5549 326.502 20.3182 327.67 20.3182 329.182C20.3182 330.189 20.4242 331.045 20.6364 331.75C20.8485 332.455 21.1534 332.991 21.5511 333.358C21.9527 333.725 22.4356 333.909 23 333.909ZM35.1364 332.818V332.205C35.1364 331.78 35.2235 331.392 35.3977 331.04C35.5758 330.684 35.8333 330.4 36.1705 330.188C36.5114 329.972 36.9242 329.864 37.4091 329.864C37.9015 329.864 38.3144 329.972 38.6477 330.188C38.9811 330.4 39.233 330.684 39.4034 331.04C39.5739 331.392 39.6591 331.78 39.6591 332.205V332.818C39.6591 333.242 39.572 333.633 39.3977 333.989C39.2273 334.341 38.9735 334.625 38.6364 334.841C38.303 335.053 37.8939 335.159 37.4091 335.159C36.9167 335.159 36.5019 335.053 36.1648 334.841C35.8277 334.625 35.572 334.341 35.3977 333.989C35.2235 333.633 35.1364 333.242 35.1364 332.818ZM36.2955 332.205V332.818C36.2955 333.17 36.3788 333.487 36.5455 333.767C36.7121 334.044 37 334.182 37.4091 334.182C37.8068 334.182 38.0871 334.044 38.25 333.767C38.4167 333.487 38.5 333.17 38.5 332.818V332.205C38.5 331.852 38.4205 331.538 38.2614 331.261C38.1023 330.981 37.8182 330.841 37.4091 330.841C37.0114 330.841 36.7254 330.981 36.5511 331.261C36.3807 331.538 36.2955 331.852 36.2955 332.205ZM29.3409 326.159V325.545C29.3409 325.121 29.428 324.733 29.6023 324.381C29.7803 324.025 30.0379 323.741 30.375 323.528C30.7159 323.312 31.1288 323.205 31.6136 323.205C32.1061 323.205 32.5189 323.312 32.8523 323.528C33.1856 323.741 33.4375 324.025 33.608 324.381C33.7784 324.733 33.8636 325.121 33.8636 325.545V326.159C33.8636 326.583 33.7765 326.973 33.6023 327.33C33.4318 327.682 33.178 327.966 32.8409 328.182C32.5076 328.394 32.0985 328.5 31.6136 328.5C31.1212 328.5 30.7064 328.394 30.3693 328.182C30.0322 327.966 29.7765 327.682 29.6023 327.33C29.428 326.973 29.3409 326.583 29.3409 326.159ZM30.5 325.545V326.159C30.5 326.511 30.5833 326.828 30.75 327.108C30.9167 327.384 31.2045 327.523 31.6136 327.523C32.0114 327.523 32.2917 327.384 32.4545 327.108C32.6212 326.828 32.7045 326.511 32.7045 326.159V325.545C32.7045 325.193 32.625 324.879 32.4659 324.602C32.3068 324.322 32.0227 324.182 31.6136 324.182C31.2159 324.182 30.9299 324.322 30.7557 324.602C30.5852 324.879 30.5 325.193 30.5 325.545ZM29.7727 335L37.7727 323.364H39.0682L31.0682 335H29.7727Z" fill="white" fill-opacity="0.5"/>
<path d="M9.20455 271V269.977L13.0455 265.773C13.4962 265.28 13.8674 264.852 14.1591 264.489C14.4508 264.121 14.6667 263.777 14.8068 263.455C14.9508 263.129 15.0227 262.788 15.0227 262.432C15.0227 262.023 14.9242 261.669 14.7273 261.369C14.5341 261.07 14.2689 260.839 13.9318 260.676C13.5947 260.513 13.2159 260.432 12.7955 260.432C12.3485 260.432 11.9583 260.525 11.625 260.71C11.2955 260.892 11.0398 261.148 10.858 261.477C10.6799 261.807 10.5909 262.193 10.5909 262.636H9.25C9.25 261.955 9.4072 261.356 9.72159 260.841C10.036 260.326 10.464 259.924 11.0057 259.636C11.5511 259.348 12.1629 259.205 12.8409 259.205C13.5227 259.205 14.1269 259.348 14.6534 259.636C15.1799 259.924 15.5928 260.312 15.892 260.801C16.1913 261.29 16.3409 261.833 16.3409 262.432C16.3409 262.86 16.2633 263.278 16.108 263.688C15.9564 264.093 15.6913 264.545 15.3125 265.045C14.9375 265.542 14.4167 266.148 13.75 266.864L11.1364 269.659V269.75H16.5455V271H9.20455ZM22.6875 271.159C21.8314 271.159 21.1023 270.926 20.5 270.46C19.8977 269.991 19.4375 269.311 19.1193 268.42C18.8011 267.527 18.642 266.447 18.642 265.182C18.642 263.924 18.8011 262.85 19.1193 261.96C19.4413 261.066 19.9034 260.384 20.5057 259.915C21.1117 259.441 21.839 259.205 22.6875 259.205C23.536 259.205 24.2614 259.441 24.8636 259.915C25.4697 260.384 25.9318 261.066 26.25 261.96C26.572 262.85 26.733 263.924 26.733 265.182C26.733 266.447 26.5739 267.527 26.2557 268.42C25.9375 269.311 25.4773 269.991 24.875 270.46C24.2727 270.926 23.5436 271.159 22.6875 271.159ZM22.6875 269.909C23.536 269.909 24.1951 269.5 24.6648 268.682C25.1345 267.864 25.3693 266.697 25.3693 265.182C25.3693 264.174 25.2614 263.316 25.0455 262.608C24.8333 261.9 24.5265 261.36 24.125 260.989C23.7273 260.617 23.2481 260.432 22.6875 260.432C21.8466 260.432 21.1894 260.847 20.7159 261.676C20.2424 262.502 20.0057 263.67 20.0057 265.182C20.0057 266.189 20.1117 267.045 20.3239 267.75C20.536 268.455 20.8409 268.991 21.2386 269.358C21.6402 269.725 22.1231 269.909 22.6875 269.909ZM34.8239 268.818V268.205C34.8239 267.78 34.911 267.392 35.0852 267.04C35.2633 266.684 35.5208 266.4 35.858 266.188C36.1989 265.972 36.6117 265.864 37.0966 265.864C37.589 265.864 38.0019 265.972 38.3352 266.188C38.6686 266.4 38.9205 266.684 39.0909 267.04C39.2614 267.392 39.3466 267.78 39.3466 268.205V268.818C39.3466 269.242 39.2595 269.633 39.0852 269.989C38.9148 270.341 38.661 270.625 38.3239 270.841C37.9905 271.053 37.5814 271.159 37.0966 271.159C36.6042 271.159 36.1894 271.053 35.8523 270.841C35.5152 270.625 35.2595 270.341 35.0852 269.989C34.911 269.633 34.8239 269.242 34.8239 268.818ZM35.983 268.205V268.818C35.983 269.17 36.0663 269.487 36.233 269.767C36.3996 270.044 36.6875 270.182 37.0966 270.182C37.4943 270.182 37.7746 270.044 37.9375 269.767C38.1042 269.487 38.1875 269.17 38.1875 268.818V268.205C38.1875 267.852 38.108 267.538 37.9489 267.261C37.7898 266.981 37.5057 266.841 37.0966 266.841C36.6989 266.841 36.4129 266.981 36.2386 267.261C36.0682 267.538 35.983 267.852 35.983 268.205ZM29.0284 262.159V261.545C29.0284 261.121 29.1155 260.733 29.2898 260.381C29.4678 260.025 29.7254 259.741 30.0625 259.528C30.4034 259.312 30.8163 259.205 31.3011 259.205C31.7936 259.205 32.2064 259.312 32.5398 259.528C32.8731 259.741 33.125 260.025 33.2955 260.381C33.4659 260.733 33.5511 261.121 33.5511 261.545V262.159C33.5511 262.583 33.464 262.973 33.2898 263.33C33.1193 263.682 32.8655 263.966 32.5284 264.182C32.1951 264.394 31.786 264.5 31.3011 264.5C30.8087 264.5 30.3939 264.394 30.0568 264.182C29.7197 263.966 29.464 263.682 29.2898 263.33C29.1155 262.973 29.0284 262.583 29.0284 262.159ZM30.1875 261.545V262.159C30.1875 262.511 30.2708 262.828 30.4375 263.108C30.6042 263.384 30.892 263.523 31.3011 263.523C31.6989 263.523 31.9792 263.384 32.142 263.108C32.3087 262.828 32.392 262.511 32.392 262.159V261.545C32.392 261.193 32.3125 260.879 32.1534 260.602C31.9943 260.322 31.7102 260.182 31.3011 260.182C30.9034 260.182 30.6174 260.322 30.4432 260.602C30.2727 260.879 30.1875 261.193 30.1875 261.545ZM29.4602 271L37.4602 259.364H38.7557L30.7557 271H29.4602Z" fill="white" fill-opacity="0.5"/>
<path d="M7.93182 204.614V203.455L13.0455 195.364H13.8864V197.159H13.3182L9.45455 203.273V203.364H16.3409V204.614H7.93182ZM13.4091 207V204.261V203.722V195.364H14.75V207H13.4091ZM22.2656 207.159C21.4096 207.159 20.6804 206.926 20.0781 206.46C19.4759 205.991 19.0156 205.311 18.6974 204.42C18.3793 203.527 18.2202 202.447 18.2202 201.182C18.2202 199.924 18.3793 198.85 18.6974 197.96C19.0194 197.066 19.4815 196.384 20.0838 195.915C20.6899 195.441 21.4171 195.205 22.2656 195.205C23.1141 195.205 23.8395 195.441 24.4418 195.915C25.0478 196.384 25.5099 197.066 25.8281 197.96C26.1501 198.85 26.3111 199.924 26.3111 201.182C26.3111 202.447 26.152 203.527 25.8338 204.42C25.5156 205.311 25.0554 205.991 24.4531 206.46C23.8509 206.926 23.1217 207.159 22.2656 207.159ZM22.2656 205.909C23.1141 205.909 23.7732 205.5 24.2429 204.682C24.7126 203.864 24.9474 202.697 24.9474 201.182C24.9474 200.174 24.8395 199.316 24.6236 198.608C24.4115 197.9 24.1046 197.36 23.7031 196.989C23.3054 196.617 22.8262 196.432 22.2656 196.432C21.4247 196.432 20.7675 196.847 20.294 197.676C19.8205 198.502 19.5838 199.67 19.5838 201.182C19.5838 202.189 19.6899 203.045 19.902 203.75C20.1141 204.455 20.419 204.991 20.8168 205.358C21.2183 205.725 21.7012 205.909 22.2656 205.909ZM34.402 204.818V204.205C34.402 203.78 34.4891 203.392 34.6634 203.04C34.8414 202.684 35.099 202.4 35.4361 202.188C35.777 201.972 36.1899 201.864 36.6747 201.864C37.1671 201.864 37.58 201.972 37.9134 202.188C38.2467 202.4 38.4986 202.684 38.669 203.04C38.8395 203.392 38.9247 203.78 38.9247 204.205V204.818C38.9247 205.242 38.8376 205.633 38.6634 205.989C38.4929 206.341 38.2391 206.625 37.902 206.841C37.5687 207.053 37.1596 207.159 36.6747 207.159C36.1823 207.159 35.7675 207.053 35.4304 206.841C35.0933 206.625 34.8376 206.341 34.6634 205.989C34.4891 205.633 34.402 205.242 34.402 204.818ZM35.5611 204.205V204.818C35.5611 205.17 35.6444 205.487 35.8111 205.767C35.9777 206.044 36.2656 206.182 36.6747 206.182C37.0724 206.182 37.3527 206.044 37.5156 205.767C37.6823 205.487 37.7656 205.17 37.7656 204.818V204.205C37.7656 203.852 37.6861 203.538 37.527 203.261C37.3679 202.981 37.0838 202.841 36.6747 202.841C36.277 202.841 35.991 202.981 35.8168 203.261C35.6463 203.538 35.5611 203.852 35.5611 204.205ZM28.6065 198.159V197.545C28.6065 197.121 28.6937 196.733 28.8679 196.381C29.0459 196.025 29.3035 195.741 29.6406 195.528C29.9815 195.312 30.3944 195.205 30.8793 195.205C31.3717 195.205 31.7846 195.312 32.1179 195.528C32.4512 195.741 32.7031 196.025 32.8736 196.381C33.044 196.733 33.1293 197.121 33.1293 197.545V198.159C33.1293 198.583 33.0421 198.973 32.8679 199.33C32.6974 199.682 32.4437 199.966 32.1065 200.182C31.7732 200.394 31.3641 200.5 30.8793 200.5C30.3868 200.5 29.9721 200.394 29.6349 200.182C29.2978 199.966 29.0421 199.682 28.8679 199.33C28.6937 198.973 28.6065 198.583 28.6065 198.159ZM29.7656 197.545V198.159C29.7656 198.511 29.849 198.828 30.0156 199.108C30.1823 199.384 30.4702 199.523 30.8793 199.523C31.277 199.523 31.5573 199.384 31.7202 199.108C31.8868 198.828 31.9702 198.511 31.9702 198.159V197.545C31.9702 197.193 31.8906 196.879 31.7315 196.602C31.5724 196.322 31.2884 196.182 30.8793 196.182C30.4815 196.182 30.1955 196.322 30.0213 196.602C29.8509 196.879 29.7656 197.193 29.7656 197.545ZM29.0384 207L37.0384 195.364H38.3338L30.3338 207H29.0384Z" fill="white" fill-opacity="0.5"/>
<path d="M13.0682 143.159C12.5909 143.152 12.1136 143.061 11.6364 142.886C11.1591 142.712 10.7235 142.419 10.3295 142.006C9.93561 141.589 9.61932 141.027 9.38068 140.318C9.14205 139.606 9.02273 138.712 9.02273 137.636C9.02273 136.606 9.11932 135.693 9.3125 134.898C9.50568 134.098 9.78598 133.426 10.1534 132.881C10.5208 132.331 10.964 131.915 11.483 131.631C12.0057 131.347 12.5947 131.205 13.25 131.205C13.9015 131.205 14.4811 131.335 14.9886 131.597C15.5 131.854 15.9167 132.214 16.2386 132.676C16.5606 133.138 16.7689 133.67 16.8636 134.273H15.4773C15.3485 133.75 15.0985 133.316 14.7273 132.972C14.3561 132.627 13.8636 132.455 13.25 132.455C12.3485 132.455 11.6383 132.847 11.1193 133.631C10.6042 134.415 10.3447 135.515 10.3409 136.932H10.4318C10.6439 136.61 10.8958 136.335 11.1875 136.108C11.483 135.877 11.8087 135.699 12.1648 135.574C12.5208 135.449 12.8977 135.386 13.2955 135.386C13.9621 135.386 14.572 135.553 15.125 135.886C15.678 136.216 16.1212 136.672 16.4545 137.256C16.7879 137.835 16.9545 138.5 16.9545 139.25C16.9545 139.97 16.7936 140.629 16.4716 141.227C16.1496 141.822 15.697 142.295 15.1136 142.648C14.5341 142.996 13.8523 143.167 13.0682 143.159ZM13.0682 141.909C13.5455 141.909 13.9735 141.79 14.3523 141.551C14.7348 141.312 15.036 140.992 15.2557 140.591C15.4792 140.189 15.5909 139.742 15.5909 139.25C15.5909 138.769 15.483 138.331 15.267 137.938C15.0549 137.54 14.7614 137.223 14.3864 136.989C14.0152 136.754 13.5909 136.636 13.1136 136.636C12.7538 136.636 12.4186 136.708 12.108 136.852C11.7973 136.992 11.5246 137.186 11.2898 137.432C11.0587 137.678 10.8769 137.96 10.7443 138.278C10.6117 138.593 10.5455 138.924 10.5455 139.273C10.5455 139.735 10.6534 140.167 10.8693 140.568C11.089 140.97 11.3883 141.294 11.767 141.54C12.1496 141.786 12.5833 141.909 13.0682 141.909ZM22.9844 143.159C22.1283 143.159 21.3991 142.926 20.7969 142.46C20.1946 141.991 19.7344 141.311 19.4162 140.42C19.098 139.527 18.9389 138.447 18.9389 137.182C18.9389 135.924 19.098 134.85 19.4162 133.96C19.7382 133.066 20.2003 132.384 20.8026 131.915C21.4086 131.441 22.1359 131.205 22.9844 131.205C23.8329 131.205 24.5582 131.441 25.1605 131.915C25.7666 132.384 26.2287 133.066 26.5469 133.96C26.8688 134.85 27.0298 135.924 27.0298 137.182C27.0298 138.447 26.8707 139.527 26.5526 140.42C26.2344 141.311 25.7741 141.991 25.1719 142.46C24.5696 142.926 23.8404 143.159 22.9844 143.159ZM22.9844 141.909C23.8329 141.909 24.492 141.5 24.9616 140.682C25.4313 139.864 25.6662 138.697 25.6662 137.182C25.6662 136.174 25.5582 135.316 25.3423 134.608C25.1302 133.9 24.8234 133.36 24.4219 132.989C24.0241 132.617 23.545 132.432 22.9844 132.432C22.1435 132.432 21.4863 132.847 21.0128 133.676C20.5393 134.502 20.3026 135.67 20.3026 137.182C20.3026 138.189 20.4086 139.045 20.6207 139.75C20.8329 140.455 21.1378 140.991 21.5355 141.358C21.937 141.725 22.42 141.909 22.9844 141.909ZM35.1207 140.818V140.205C35.1207 139.78 35.2079 139.392 35.3821 139.04C35.5601 138.684 35.8177 138.4 36.1548 138.188C36.4957 137.972 36.9086 137.864 37.3935 137.864C37.8859 137.864 38.2988 137.972 38.6321 138.188C38.9654 138.4 39.2173 138.684 39.3878 139.04C39.5582 139.392 39.6435 139.78 39.6435 140.205V140.818C39.6435 141.242 39.5563 141.633 39.3821 141.989C39.2116 142.341 38.9579 142.625 38.6207 142.841C38.2874 143.053 37.8783 143.159 37.3935 143.159C36.901 143.159 36.4863 143.053 36.1491 142.841C35.812 142.625 35.5563 142.341 35.3821 141.989C35.2079 141.633 35.1207 141.242 35.1207 140.818ZM36.2798 140.205V140.818C36.2798 141.17 36.3632 141.487 36.5298 141.767C36.6965 142.044 36.9844 142.182 37.3935 142.182C37.7912 142.182 38.0715 142.044 38.2344 141.767C38.401 141.487 38.4844 141.17 38.4844 140.818V140.205C38.4844 139.852 38.4048 139.538 38.2457 139.261C38.0866 138.981 37.8026 138.841 37.3935 138.841C36.9957 138.841 36.7098 138.981 36.5355 139.261C36.3651 139.538 36.2798 139.852 36.2798 140.205ZM29.3253 134.159V133.545C29.3253 133.121 29.4124 132.733 29.5866 132.381C29.7647 132.025 30.0223 131.741 30.3594 131.528C30.7003 131.312 31.1132 131.205 31.598 131.205C32.0904 131.205 32.5033 131.312 32.8366 131.528C33.17 131.741 33.4219 132.025 33.5923 132.381C33.7628 132.733 33.848 133.121 33.848 133.545V134.159C33.848 134.583 33.7609 134.973 33.5866 135.33C33.4162 135.682 33.1624 135.966 32.8253 136.182C32.492 136.394 32.0829 136.5 31.598 136.5C31.1056 136.5 30.6908 136.394 30.3537 136.182C30.0166 135.966 29.7609 135.682 29.5866 135.33C29.4124 134.973 29.3253 134.583 29.3253 134.159ZM30.4844 133.545V134.159C30.4844 134.511 30.5677 134.828 30.7344 135.108C30.901 135.384 31.1889 135.523 31.598 135.523C31.9957 135.523 32.276 135.384 32.4389 135.108C32.6056 134.828 32.6889 134.511 32.6889 134.159V133.545C32.6889 133.193 32.6094 132.879 32.4503 132.602C32.2912 132.322 32.0071 132.182 31.598 132.182C31.2003 132.182 30.9143 132.322 30.7401 132.602C30.5696 132.879 30.4844 133.193 30.4844 133.545ZM29.7571 143L37.7571 131.364H39.0526L31.0526 143H29.7571Z" fill="white" fill-opacity="0.5"/>
<path d="M12.9318 79.1591C12.1515 79.1591 11.4621 79.0208 10.8636 78.7443C10.2689 78.464 9.80492 78.0795 9.47159 77.5909C9.13826 77.0985 8.97348 76.5379 8.97727 75.9091C8.97348 75.4167 9.07008 74.9621 9.26705 74.5455C9.46402 74.125 9.73295 73.7746 10.0739 73.4943C10.4186 73.2102 10.803 73.0303 11.2273 72.9545V72.8864C10.6705 72.7424 10.2273 72.4299 9.89773 71.9489C9.56818 71.464 9.4053 70.9129 9.40909 70.2955C9.4053 69.7045 9.55492 69.1761 9.85795 68.7102C10.161 68.2443 10.5777 67.8769 11.108 67.608C11.642 67.339 12.25 67.2045 12.9318 67.2045C13.6061 67.2045 14.2083 67.339 14.7386 67.608C15.2689 67.8769 15.6856 68.2443 15.9886 68.7102C16.2955 69.1761 16.4508 69.7045 16.4545 70.2955C16.4508 70.9129 16.2822 71.464 15.9489 71.9489C15.6193 72.4299 15.1818 72.7424 14.6364 72.8864V72.9545C15.0568 73.0303 15.4356 73.2102 15.7727 73.4943C16.1098 73.7746 16.3788 74.125 16.5795 74.5455C16.7803 74.9621 16.8826 75.4167 16.8864 75.9091C16.8826 76.5379 16.7121 77.0985 16.375 77.5909C16.0417 78.0795 15.5777 78.464 14.983 78.7443C14.392 79.0208 13.7083 79.1591 12.9318 79.1591ZM12.9318 77.9091C13.4583 77.9091 13.9129 77.8239 14.2955 77.6534C14.678 77.483 14.9735 77.2424 15.1818 76.9318C15.3902 76.6212 15.4962 76.2576 15.5 75.8409C15.4962 75.4015 15.3826 75.0133 15.1591 74.6761C14.9356 74.339 14.6307 74.0739 14.2443 73.8807C13.8617 73.6875 13.4242 73.5909 12.9318 73.5909C12.4356 73.5909 11.9924 73.6875 11.6023 73.8807C11.2159 74.0739 10.911 74.339 10.6875 74.6761C10.4678 75.0133 10.3598 75.4015 10.3636 75.8409C10.3598 76.2576 10.4602 76.6212 10.6648 76.9318C10.8731 77.2424 11.1705 77.483 11.5568 77.6534C11.9432 77.8239 12.4015 77.9091 12.9318 77.9091ZM12.9318 72.3864C13.3485 72.3864 13.7178 72.303 14.0398 72.1364C14.3655 71.9697 14.6212 71.7367 14.8068 71.4375C14.9924 71.1383 15.0871 70.7879 15.0909 70.3864C15.0871 69.9924 14.9943 69.6496 14.8125 69.358C14.6307 69.0625 14.3788 68.8352 14.0568 68.6761C13.7348 68.5133 13.3598 68.4318 12.9318 68.4318C12.4962 68.4318 12.1155 68.5133 11.7898 68.6761C11.464 68.8352 11.2121 69.0625 11.0341 69.358C10.8561 69.6496 10.7689 69.9924 10.7727 70.3864C10.7689 70.7879 10.858 71.1383 11.0398 71.4375C11.2254 71.7367 11.4811 71.9697 11.8068 72.1364C12.1326 72.303 12.5076 72.3864 12.9318 72.3864ZM22.8594 79.1591C22.0033 79.1591 21.2741 78.9261 20.6719 78.4602C20.0696 77.9905 19.6094 77.3106 19.2912 76.4205C18.973 75.5265 18.8139 74.447 18.8139 73.1818C18.8139 71.9242 18.973 70.8504 19.2912 69.9602C19.6132 69.0663 20.0753 68.3845 20.6776 67.9148C21.2836 67.4413 22.0109 67.2045 22.8594 67.2045C23.7079 67.2045 24.4332 67.4413 25.0355 67.9148C25.6416 68.3845 26.1037 69.0663 26.4219 69.9602C26.7438 70.8504 26.9048 71.9242 26.9048 73.1818C26.9048 74.447 26.7457 75.5265 26.4276 76.4205C26.1094 77.3106 25.6491 77.9905 25.0469 78.4602C24.4446 78.9261 23.7154 79.1591 22.8594 79.1591ZM22.8594 77.9091C23.7079 77.9091 24.367 77.5 24.8366 76.6818C25.3063 75.8636 25.5412 74.697 25.5412 73.1818C25.5412 72.1742 25.4332 71.3163 25.2173 70.608C25.0052 69.8996 24.6984 69.3598 24.2969 68.9886C23.8991 68.6174 23.42 68.4318 22.8594 68.4318C22.0185 68.4318 21.3613 68.8466 20.8878 69.6761C20.4143 70.5019 20.1776 71.6705 20.1776 73.1818C20.1776 74.1894 20.2836 75.0455 20.4957 75.75C20.7079 76.4545 21.0128 76.9905 21.4105 77.358C21.812 77.7254 22.295 77.9091 22.8594 77.9091ZM34.9957 76.8182V76.2045C34.9957 75.7803 35.0829 75.392 35.2571 75.0398C35.4351 74.6837 35.6927 74.3996 36.0298 74.1875C36.3707 73.9716 36.7836 73.8636 37.2685 73.8636C37.7609 73.8636 38.1738 73.9716 38.5071 74.1875C38.8404 74.3996 39.0923 74.6837 39.2628 75.0398C39.4332 75.392 39.5185 75.7803 39.5185 76.2045V76.8182C39.5185 77.2424 39.4313 77.6326 39.2571 77.9886C39.0866 78.3409 38.8329 78.625 38.4957 78.8409C38.1624 79.053 37.7533 79.1591 37.2685 79.1591C36.776 79.1591 36.3613 79.053 36.0241 78.8409C35.687 78.625 35.4313 78.3409 35.2571 77.9886C35.0829 77.6326 34.9957 77.2424 34.9957 76.8182ZM36.1548 76.2045V76.8182C36.1548 77.1705 36.2382 77.4867 36.4048 77.767C36.5715 78.0436 36.8594 78.1818 37.2685 78.1818C37.6662 78.1818 37.9465 78.0436 38.1094 77.767C38.276 77.4867 38.3594 77.1705 38.3594 76.8182V76.2045C38.3594 75.8523 38.2798 75.5379 38.1207 75.2614C37.9616 74.9811 37.6776 74.8409 37.2685 74.8409C36.8707 74.8409 36.5848 74.9811 36.4105 75.2614C36.2401 75.5379 36.1548 75.8523 36.1548 76.2045ZM29.2003 70.1591V69.5455C29.2003 69.1212 29.2874 68.733 29.4616 68.3807C29.6397 68.0246 29.8973 67.7405 30.2344 67.5284C30.5753 67.3125 30.9882 67.2045 31.473 67.2045C31.9654 67.2045 32.3783 67.3125 32.7116 67.5284C33.045 67.7405 33.2969 68.0246 33.4673 68.3807C33.6378 68.733 33.723 69.1212 33.723 69.5455V70.1591C33.723 70.5833 33.6359 70.9735 33.4616 71.3295C33.2912 71.6818 33.0374 71.9659 32.7003 72.1818C32.367 72.3939 31.9579 72.5 31.473 72.5C30.9806 72.5 30.5658 72.3939 30.2287 72.1818C29.8916 71.9659 29.6359 71.6818 29.4616 71.3295C29.2874 70.9735 29.2003 70.5833 29.2003 70.1591ZM30.3594 69.5455V70.1591C30.3594 70.5114 30.4427 70.8277 30.6094 71.108C30.776 71.3845 31.0639 71.5227 31.473 71.5227C31.8707 71.5227 32.151 71.3845 32.3139 71.108C32.4806 70.8277 32.5639 70.5114 32.5639 70.1591V69.5455C32.5639 69.1932 32.4844 68.8788 32.3253 68.6023C32.1662 68.322 31.8821 68.1818 31.473 68.1818C31.0753 68.1818 30.7893 68.322 30.6151 68.6023C30.4446 68.8788 30.3594 69.1932 30.3594 69.5455ZM29.6321 79L37.6321 67.3636H38.9276L30.9276 79H29.6321Z" fill="white" fill-opacity="0.5"/>
<path d="M5.29545 3.36364V15H3.88636V4.84091H3.81818L0.977273 6.72727V5.29545L3.88636 3.36364H5.29545ZM12.4375 15.1591C11.5814 15.1591 10.8523 14.9261 10.25 14.4602C9.64773 13.9905 9.1875 13.3106 8.86932 12.4205C8.55114 11.5265 8.39205 10.447 8.39205 9.18182C8.39205 7.92424 8.55114 6.85038 8.86932 5.96023C9.19129 5.06629 9.65341 4.38447 10.2557 3.91477C10.8617 3.44129 11.589 3.20455 12.4375 3.20455C13.286 3.20455 14.0114 3.44129 14.6136 3.91477C15.2197 4.38447 15.6818 5.06629 16 5.96023C16.322 6.85038 16.483 7.92424 16.483 9.18182C16.483 10.447 16.3239 11.5265 16.0057 12.4205C15.6875 13.3106 15.2273 13.9905 14.625 14.4602C14.0227 14.9261 13.2936 15.1591 12.4375 15.1591ZM12.4375 13.9091C13.286 13.9091 13.9451 13.5 14.4148 12.6818C14.8845 11.8636 15.1193 10.697 15.1193 9.18182C15.1193 8.17424 15.0114 7.31629 14.7955 6.60795C14.5833 5.89962 14.2765 5.35985 13.875 4.98864C13.4773 4.61742 12.9981 4.43182 12.4375 4.43182C11.5966 4.43182 10.9394 4.84659 10.4659 5.67614C9.99242 6.50189 9.75568 7.67045 9.75568 9.18182C9.75568 10.1894 9.86174 11.0455 10.0739 11.75C10.286 12.4545 10.5909 12.9905 10.9886 13.358C11.3902 13.7254 11.8731 13.9091 12.4375 13.9091ZM22.4375 15.1591C21.5814 15.1591 20.8523 14.9261 20.25 14.4602C19.6477 13.9905 19.1875 13.3106 18.8693 12.4205C18.5511 11.5265 18.392 10.447 18.392 9.18182C18.392 7.92424 18.5511 6.85038 18.8693 5.96023C19.1913 5.06629 19.6534 4.38447 20.2557 3.91477C20.8617 3.44129 21.589 3.20455 22.4375 3.20455C23.286 3.20455 24.0114 3.44129 24.6136 3.91477C25.2197 4.38447 25.6818 5.06629 26 5.96023C26.322 6.85038 26.483 7.92424 26.483 9.18182C26.483 10.447 26.3239 11.5265 26.0057 12.4205C25.6875 13.3106 25.2273 13.9905 24.625 14.4602C24.0227 14.9261 23.2936 15.1591 22.4375 15.1591ZM22.4375 13.9091C23.286 13.9091 23.9451 13.5 24.4148 12.6818C24.8845 11.8636 25.1193 10.697 25.1193 9.18182C25.1193 8.17424 25.0114 7.31629 24.7955 6.60795C24.5833 5.89962 24.2765 5.35985 23.875 4.98864C23.4773 4.61742 22.9981 4.43182 22.4375 4.43182C21.5966 4.43182 20.9394 4.84659 20.4659 5.67614C19.9924 6.50189 19.7557 7.67045 19.7557 9.18182C19.7557 10.1894 19.8617 11.0455 20.0739 11.75C20.286 12.4545 20.5909 12.9905 20.9886 13.358C21.3902 13.7254 21.8731 13.9091 22.4375 13.9091ZM34.5739 12.8182V12.2045C34.5739 11.7803 34.661 11.392 34.8352 11.0398C35.0133 10.6837 35.2708 10.3996 35.608 10.1875C35.9489 9.97159 36.3617 9.86364 36.8466 9.86364C37.339 9.86364 37.7519 9.97159 38.0852 10.1875C38.4186 10.3996 38.6705 10.6837 38.8409 11.0398C39.0114 11.392 39.0966 11.7803 39.0966 12.2045V12.8182C39.0966 13.2424 39.0095 13.6326 38.8352 13.9886C38.6648 14.3409 38.411 14.625 38.0739 14.8409C37.7405 15.053 37.3314 15.1591 36.8466 15.1591C36.3542 15.1591 35.9394 15.053 35.6023 14.8409C35.2652 14.625 35.0095 14.3409 34.8352 13.9886C34.661 13.6326 34.5739 13.2424 34.5739 12.8182ZM35.733 12.2045V12.8182C35.733 13.1705 35.8163 13.4867 35.983 13.767C36.1496 14.0436 36.4375 14.1818 36.8466 14.1818C37.2443 14.1818 37.5246 14.0436 37.6875 13.767C37.8542 13.4867 37.9375 13.1705 37.9375 12.8182V12.2045C37.9375 11.8523 37.858 11.5379 37.6989 11.2614C37.5398 10.9811 37.2557 10.8409 36.8466 10.8409C36.4489 10.8409 36.1629 10.9811 35.9886 11.2614C35.8182 11.5379 35.733 11.8523 35.733 12.2045ZM28.7784 6.15909V5.54545C28.7784 5.12121 28.8655 4.73295 29.0398 4.38068C29.2178 4.02462 29.4754 3.74053 29.8125 3.52841C30.1534 3.3125 30.5663 3.20455 31.0511 3.20455C31.5436 3.20455 31.9564 3.3125 32.2898 3.52841C32.6231 3.74053 32.875 4.02462 33.0455 4.38068C33.2159 4.73295 33.3011 5.12121 33.3011 5.54545V6.15909C33.3011 6.58333 33.214 6.97348 33.0398 7.32955C32.8693 7.68182 32.6155 7.96591 32.2784 8.18182C31.9451 8.39394 31.536 8.5 31.0511 8.5C30.5587 8.5 30.1439 8.39394 29.8068 8.18182C29.4697 7.96591 29.214 7.68182 29.0398 7.32955C28.8655 6.97348 28.7784 6.58333 28.7784 6.15909ZM29.9375 5.54545V6.15909C29.9375 6.51136 30.0208 6.82765 30.1875 7.10795C30.3542 7.38447 30.642 7.52273 31.0511 7.52273C31.4489 7.52273 31.7292 7.38447 31.892 7.10795C32.0587 6.82765 32.142 6.51136 32.142 6.15909V5.54545C32.142 5.19318 32.0625 4.87879 31.9034 4.60227C31.7443 4.32197 31.4602 4.18182 31.0511 4.18182C30.6534 4.18182 30.3674 4.32197 30.1932 4.60227C30.0227 4.87879 29.9375 5.19318 29.9375 5.54545ZM29.2102 15L37.2102 3.36364H38.5057L30.5057 15H29.2102Z" fill="white" fill-opacity="0.5"/>
<path d="M358.932 369.159C358.152 369.159 357.462 369.021 356.864 368.744C356.269 368.464 355.805 368.08 355.472 367.591C355.138 367.098 354.973 366.538 354.977 365.909C354.973 365.417 355.07 364.962 355.267 364.545C355.464 364.125 355.733 363.775 356.074 363.494C356.419 363.21 356.803 363.03 357.227 362.955V362.886C356.67 362.742 356.227 362.43 355.898 361.949C355.568 361.464 355.405 360.913 355.409 360.295C355.405 359.705 355.555 359.176 355.858 358.71C356.161 358.244 356.578 357.877 357.108 357.608C357.642 357.339 358.25 357.205 358.932 357.205C359.606 357.205 360.208 357.339 360.739 357.608C361.269 357.877 361.686 358.244 361.989 358.71C362.295 359.176 362.451 359.705 362.455 360.295C362.451 360.913 362.282 361.464 361.949 361.949C361.619 362.43 361.182 362.742 360.636 362.886V362.955C361.057 363.03 361.436 363.21 361.773 363.494C362.11 363.775 362.379 364.125 362.58 364.545C362.78 364.962 362.883 365.417 362.886 365.909C362.883 366.538 362.712 367.098 362.375 367.591C362.042 368.08 361.578 368.464 360.983 368.744C360.392 369.021 359.708 369.159 358.932 369.159ZM358.932 367.909C359.458 367.909 359.913 367.824 360.295 367.653C360.678 367.483 360.973 367.242 361.182 366.932C361.39 366.621 361.496 366.258 361.5 365.841C361.496 365.402 361.383 365.013 361.159 364.676C360.936 364.339 360.631 364.074 360.244 363.881C359.862 363.687 359.424 363.591 358.932 363.591C358.436 363.591 357.992 363.687 357.602 363.881C357.216 364.074 356.911 364.339 356.688 364.676C356.468 365.013 356.36 365.402 356.364 365.841C356.36 366.258 356.46 366.621 356.665 366.932C356.873 367.242 357.17 367.483 357.557 367.653C357.943 367.824 358.402 367.909 358.932 367.909ZM358.932 362.386C359.348 362.386 359.718 362.303 360.04 362.136C360.366 361.97 360.621 361.737 360.807 361.438C360.992 361.138 361.087 360.788 361.091 360.386C361.087 359.992 360.994 359.65 360.812 359.358C360.631 359.062 360.379 358.835 360.057 358.676C359.735 358.513 359.36 358.432 358.932 358.432C358.496 358.432 358.116 358.513 357.79 358.676C357.464 358.835 357.212 359.062 357.034 359.358C356.856 359.65 356.769 359.992 356.773 360.386C356.769 360.788 356.858 361.138 357.04 361.438C357.225 361.737 357.481 361.97 357.807 362.136C358.133 362.303 358.508 362.386 358.932 362.386Z" fill="white" fill-opacity="0.5"/>
<path d="M676.295 357.364V369H674.886V358.841H674.818L671.977 360.727V359.295L674.886 357.364H676.295ZM683.278 369.159C682.612 369.159 682.011 369.027 681.477 368.761C680.943 368.496 680.515 368.133 680.193 367.67C679.871 367.208 679.695 366.682 679.665 366.091H681.028C681.081 366.617 681.32 367.053 681.744 367.398C682.172 367.739 682.684 367.909 683.278 367.909C683.756 367.909 684.18 367.797 684.551 367.574C684.926 367.35 685.22 367.044 685.432 366.653C685.648 366.259 685.756 365.814 685.756 365.318C685.756 364.811 685.644 364.358 685.42 363.96C685.201 363.559 684.898 363.242 684.511 363.011C684.125 362.78 683.684 362.663 683.188 362.659C682.831 362.655 682.466 362.71 682.091 362.824C681.716 362.934 681.407 363.076 681.165 363.25L679.847 363.091L680.551 357.364H686.597V358.614H681.733L681.324 362.045H681.392C681.631 361.856 681.93 361.699 682.29 361.574C682.65 361.449 683.025 361.386 683.415 361.386C684.127 361.386 684.761 361.557 685.318 361.898C685.879 362.235 686.318 362.697 686.636 363.284C686.958 363.871 687.119 364.542 687.119 365.295C687.119 366.038 686.953 366.701 686.619 367.284C686.29 367.864 685.835 368.322 685.256 368.659C684.676 368.992 684.017 369.159 683.278 369.159Z" fill="white" fill-opacity="0.5"/>
<path d="M113.205 369V367.977L117.045 363.773C117.496 363.28 117.867 362.852 118.159 362.489C118.451 362.121 118.667 361.777 118.807 361.455C118.951 361.129 119.023 360.788 119.023 360.432C119.023 360.023 118.924 359.669 118.727 359.369C118.534 359.07 118.269 358.839 117.932 358.676C117.595 358.513 117.216 358.432 116.795 358.432C116.348 358.432 115.958 358.525 115.625 358.71C115.295 358.892 115.04 359.148 114.858 359.477C114.68 359.807 114.591 360.193 114.591 360.636H113.25C113.25 359.955 113.407 359.356 113.722 358.841C114.036 358.326 114.464 357.924 115.006 357.636C115.551 357.348 116.163 357.205 116.841 357.205C117.523 357.205 118.127 357.348 118.653 357.636C119.18 357.924 119.593 358.312 119.892 358.801C120.191 359.29 120.341 359.833 120.341 360.432C120.341 360.86 120.263 361.278 120.108 361.688C119.956 362.093 119.691 362.545 119.312 363.045C118.938 363.542 118.417 364.148 117.75 364.864L115.136 367.659V367.75H120.545V369H113.205Z" fill="white" fill-opacity="0.5"/>
<path d="M398.909 357.205C399.386 357.208 399.864 357.299 400.341 357.477C400.818 357.655 401.254 357.951 401.648 358.364C402.042 358.773 402.358 359.331 402.597 360.04C402.835 360.748 402.955 361.636 402.955 362.705C402.955 363.739 402.856 364.657 402.659 365.46C402.466 366.259 402.186 366.934 401.818 367.483C401.455 368.032 401.011 368.449 400.489 368.733C399.97 369.017 399.383 369.159 398.727 369.159C398.076 369.159 397.494 369.03 396.983 368.773C396.475 368.511 396.059 368.15 395.733 367.688C395.411 367.222 395.205 366.682 395.114 366.068H396.5C396.625 366.602 396.873 367.044 397.244 367.392C397.619 367.737 398.114 367.909 398.727 367.909C399.625 367.909 400.333 367.517 400.852 366.733C401.375 365.949 401.636 364.841 401.636 363.409H401.545C401.333 363.727 401.081 364.002 400.79 364.233C400.498 364.464 400.174 364.642 399.818 364.767C399.462 364.892 399.083 364.955 398.682 364.955C398.015 364.955 397.403 364.79 396.847 364.46C396.294 364.127 395.85 363.67 395.517 363.091C395.188 362.508 395.023 361.841 395.023 361.091C395.023 360.379 395.182 359.727 395.5 359.136C395.822 358.542 396.273 358.068 396.852 357.716C397.436 357.364 398.121 357.193 398.909 357.205ZM398.909 358.455C398.432 358.455 398.002 358.574 397.619 358.812C397.241 359.047 396.939 359.366 396.716 359.767C396.496 360.165 396.386 360.606 396.386 361.091C396.386 361.576 396.492 362.017 396.705 362.415C396.92 362.809 397.214 363.123 397.585 363.358C397.96 363.589 398.386 363.705 398.864 363.705C399.223 363.705 399.559 363.634 399.869 363.494C400.18 363.35 400.451 363.155 400.682 362.909C400.917 362.659 401.1 362.377 401.233 362.062C401.366 361.744 401.432 361.413 401.432 361.068C401.432 360.614 401.322 360.187 401.102 359.79C400.886 359.392 400.587 359.07 400.205 358.824C399.826 358.578 399.394 358.455 398.909 358.455Z" fill="white" fill-opacity="0.5"/>
<path d="M724.295 357.364V369H722.886V358.841H722.818L719.977 360.727V359.295L722.886 357.364H724.295ZM731.506 369.159C731.028 369.152 730.551 369.061 730.074 368.886C729.597 368.712 729.161 368.419 728.767 368.006C728.373 367.589 728.057 367.027 727.818 366.318C727.58 365.606 727.46 364.712 727.46 363.636C727.46 362.606 727.557 361.693 727.75 360.898C727.943 360.098 728.223 359.426 728.591 358.881C728.958 358.331 729.402 357.915 729.92 357.631C730.443 357.347 731.032 357.205 731.688 357.205C732.339 357.205 732.919 357.335 733.426 357.597C733.938 357.854 734.354 358.214 734.676 358.676C734.998 359.138 735.206 359.67 735.301 360.273H733.915C733.786 359.75 733.536 359.316 733.165 358.972C732.794 358.627 732.301 358.455 731.688 358.455C730.786 358.455 730.076 358.847 729.557 359.631C729.042 360.415 728.782 361.515 728.778 362.932H728.869C729.081 362.61 729.333 362.335 729.625 362.108C729.92 361.877 730.246 361.699 730.602 361.574C730.958 361.449 731.335 361.386 731.733 361.386C732.4 361.386 733.009 361.553 733.562 361.886C734.116 362.216 734.559 362.672 734.892 363.256C735.225 363.835 735.392 364.5 735.392 365.25C735.392 365.97 735.231 366.629 734.909 367.227C734.587 367.822 734.134 368.295 733.551 368.648C732.972 368.996 732.29 369.167 731.506 369.159ZM731.506 367.909C731.983 367.909 732.411 367.79 732.79 367.551C733.172 367.312 733.473 366.992 733.693 366.591C733.917 366.189 734.028 365.742 734.028 365.25C734.028 364.769 733.92 364.331 733.705 363.938C733.492 363.54 733.199 363.223 732.824 362.989C732.453 362.754 732.028 362.636 731.551 362.636C731.191 362.636 730.856 362.708 730.545 362.852C730.235 362.992 729.962 363.186 729.727 363.432C729.496 363.678 729.314 363.96 729.182 364.278C729.049 364.593 728.983 364.924 728.983 365.273C728.983 365.735 729.091 366.167 729.307 366.568C729.527 366.97 729.826 367.294 730.205 367.54C730.587 367.786 731.021 367.909 731.506 367.909Z" fill="white" fill-opacity="0.5"/>
<path d="M157.136 369.159C156.386 369.159 155.718 369.03 155.131 368.773C154.547 368.515 154.083 368.157 153.739 367.699C153.398 367.237 153.212 366.701 153.182 366.091H154.614C154.644 366.466 154.773 366.79 155 367.062C155.227 367.331 155.525 367.54 155.892 367.688C156.259 367.835 156.667 367.909 157.114 367.909C157.614 367.909 158.057 367.822 158.443 367.648C158.83 367.473 159.133 367.231 159.352 366.92C159.572 366.61 159.682 366.25 159.682 365.841C159.682 365.413 159.576 365.036 159.364 364.71C159.152 364.381 158.841 364.123 158.432 363.938C158.023 363.752 157.523 363.659 156.932 363.659H156V362.409H156.932C157.394 362.409 157.799 362.326 158.148 362.159C158.5 361.992 158.775 361.758 158.972 361.455C159.172 361.152 159.273 360.795 159.273 360.386C159.273 359.992 159.186 359.65 159.011 359.358C158.837 359.066 158.591 358.839 158.273 358.676C157.958 358.513 157.587 358.432 157.159 358.432C156.758 358.432 156.379 358.506 156.023 358.653C155.67 358.797 155.383 359.008 155.159 359.284C154.936 359.557 154.814 359.886 154.795 360.273H153.432C153.455 359.663 153.638 359.129 153.983 358.67C154.328 358.208 154.778 357.848 155.335 357.591C155.896 357.333 156.511 357.205 157.182 357.205C157.902 357.205 158.519 357.35 159.034 357.642C159.549 357.93 159.945 358.311 160.222 358.784C160.498 359.258 160.636 359.769 160.636 360.318C160.636 360.973 160.464 361.532 160.119 361.994C159.778 362.456 159.314 362.777 158.727 362.955V363.045C159.462 363.167 160.036 363.479 160.449 363.983C160.862 364.483 161.068 365.102 161.068 365.841C161.068 366.473 160.896 367.042 160.551 367.545C160.21 368.045 159.744 368.439 159.153 368.727C158.563 369.015 157.89 369.159 157.136 369.159Z" fill="white" fill-opacity="0.5"/>
<path d="M439.295 357.364V369H437.886V358.841H437.818L434.977 360.727V359.295L437.886 357.364H439.295ZM446.438 369.159C445.581 369.159 444.852 368.926 444.25 368.46C443.648 367.991 443.188 367.311 442.869 366.42C442.551 365.527 442.392 364.447 442.392 363.182C442.392 361.924 442.551 360.85 442.869 359.96C443.191 359.066 443.653 358.384 444.256 357.915C444.862 357.441 445.589 357.205 446.438 357.205C447.286 357.205 448.011 357.441 448.614 357.915C449.22 358.384 449.682 359.066 450 359.96C450.322 360.85 450.483 361.924 450.483 363.182C450.483 364.447 450.324 365.527 450.006 366.42C449.688 367.311 449.227 367.991 448.625 368.46C448.023 368.926 447.294 369.159 446.438 369.159ZM446.438 367.909C447.286 367.909 447.945 367.5 448.415 366.682C448.884 365.864 449.119 364.697 449.119 363.182C449.119 362.174 449.011 361.316 448.795 360.608C448.583 359.9 448.277 359.36 447.875 358.989C447.477 358.617 446.998 358.432 446.438 358.432C445.597 358.432 444.939 358.847 444.466 359.676C443.992 360.502 443.756 361.67 443.756 363.182C443.756 364.189 443.862 365.045 444.074 365.75C444.286 366.455 444.591 366.991 444.989 367.358C445.39 367.725 445.873 367.909 446.438 367.909Z" fill="white" fill-opacity="0.5"/>
<path d="M772.295 357.364V369H770.886V358.841H770.818L767.977 360.727V359.295L770.886 357.364H772.295ZM776.006 369L781.21 358.705V358.614H775.21V357.364H782.665V358.682L777.483 369H776.006Z" fill="white" fill-opacity="0.5"/>
<path d="M193.932 366.614V365.455L199.045 357.364H199.886V359.159H199.318L195.455 365.273V365.364H202.341V366.614H193.932ZM199.409 369V366.261V365.722V357.364H200.75V369H199.409Z" fill="white" fill-opacity="0.5"/>
<path d="M487.295 357.364V369H485.886V358.841H485.818L482.977 360.727V359.295L485.886 357.364H487.295ZM494.733 357.364V369H493.324V358.841H493.256L490.415 360.727V359.295L493.324 357.364H494.733Z" fill="white" fill-opacity="0.5"/>
<path d="M819.295 357.364V369H817.886V358.841H817.818L814.977 360.727V359.295L817.886 357.364H819.295ZM826.369 369.159C825.589 369.159 824.9 369.021 824.301 368.744C823.706 368.464 823.242 368.08 822.909 367.591C822.576 367.098 822.411 366.538 822.415 365.909C822.411 365.417 822.508 364.962 822.705 364.545C822.902 364.125 823.17 363.775 823.511 363.494C823.856 363.21 824.241 363.03 824.665 362.955V362.886C824.108 362.742 823.665 362.43 823.335 361.949C823.006 361.464 822.843 360.913 822.847 360.295C822.843 359.705 822.992 359.176 823.295 358.71C823.598 358.244 824.015 357.877 824.545 357.608C825.08 357.339 825.688 357.205 826.369 357.205C827.044 357.205 827.646 357.339 828.176 357.608C828.706 357.877 829.123 358.244 829.426 358.71C829.733 359.176 829.888 359.705 829.892 360.295C829.888 360.913 829.72 361.464 829.386 361.949C829.057 362.43 828.619 362.742 828.074 362.886V362.955C828.494 363.03 828.873 363.21 829.21 363.494C829.547 363.775 829.816 364.125 830.017 364.545C830.218 364.962 830.32 365.417 830.324 365.909C830.32 366.538 830.15 367.098 829.812 367.591C829.479 368.08 829.015 368.464 828.42 368.744C827.83 369.021 827.146 369.159 826.369 369.159ZM826.369 367.909C826.896 367.909 827.35 367.824 827.733 367.653C828.116 367.483 828.411 367.242 828.619 366.932C828.828 366.621 828.934 366.258 828.938 365.841C828.934 365.402 828.82 365.013 828.597 364.676C828.373 364.339 828.068 364.074 827.682 363.881C827.299 363.687 826.862 363.591 826.369 363.591C825.873 363.591 825.43 363.687 825.04 363.881C824.653 364.074 824.348 364.339 824.125 364.676C823.905 365.013 823.797 365.402 823.801 365.841C823.797 366.258 823.898 366.621 824.102 366.932C824.311 367.242 824.608 367.483 824.994 367.653C825.381 367.824 825.839 367.909 826.369 367.909ZM826.369 362.386C826.786 362.386 827.155 362.303 827.477 362.136C827.803 361.97 828.059 361.737 828.244 361.438C828.43 361.138 828.525 360.788 828.528 360.386C828.525 359.992 828.432 359.65 828.25 359.358C828.068 359.062 827.816 358.835 827.494 358.676C827.172 358.513 826.797 358.432 826.369 358.432C825.934 358.432 825.553 358.513 825.227 358.676C824.902 358.835 824.65 359.062 824.472 359.358C824.294 359.65 824.206 359.992 824.21 360.386C824.206 360.788 824.295 361.138 824.477 361.438C824.663 361.737 824.919 361.97 825.244 362.136C825.57 362.303 825.945 362.386 826.369 362.386Z" fill="white" fill-opacity="0.5"/>
<path d="M238.841 369.159C238.174 369.159 237.574 369.027 237.04 368.761C236.506 368.496 236.078 368.133 235.756 367.67C235.434 367.208 235.258 366.682 235.227 366.091H236.591C236.644 366.617 236.883 367.053 237.307 367.398C237.735 367.739 238.246 367.909 238.841 367.909C239.318 367.909 239.742 367.797 240.114 367.574C240.489 367.35 240.782 367.044 240.994 366.653C241.21 366.259 241.318 365.814 241.318 365.318C241.318 364.811 241.206 364.358 240.983 363.96C240.763 363.559 240.46 363.242 240.074 363.011C239.688 362.78 239.246 362.663 238.75 362.659C238.394 362.655 238.028 362.71 237.653 362.824C237.278 362.934 236.97 363.076 236.727 363.25L235.409 363.091L236.114 357.364H242.159V358.614H237.295L236.886 362.045H236.955C237.193 361.856 237.492 361.699 237.852 361.574C238.212 361.449 238.587 361.386 238.977 361.386C239.689 361.386 240.324 361.557 240.881 361.898C241.441 362.235 241.881 362.697 242.199 363.284C242.521 363.871 242.682 364.542 242.682 365.295C242.682 366.038 242.515 366.701 242.182 367.284C241.852 367.864 241.398 368.322 240.818 368.659C240.239 368.992 239.58 369.159 238.841 369.159Z" fill="white" fill-opacity="0.5"/>
<path d="M532.295 357.364V369H530.886V358.841H530.818L527.977 360.727V359.295L530.886 357.364H532.295ZM535.642 369V367.977L539.483 363.773C539.934 363.28 540.305 362.852 540.597 362.489C540.888 362.121 541.104 361.777 541.244 361.455C541.388 361.129 541.46 360.788 541.46 360.432C541.46 360.023 541.362 359.669 541.165 359.369C540.972 359.07 540.706 358.839 540.369 358.676C540.032 358.513 539.653 358.432 539.233 358.432C538.786 358.432 538.396 358.525 538.062 358.71C537.733 358.892 537.477 359.148 537.295 359.477C537.117 359.807 537.028 360.193 537.028 360.636H535.688C535.688 359.955 535.845 359.356 536.159 358.841C536.473 358.326 536.902 357.924 537.443 357.636C537.989 357.348 538.6 357.205 539.278 357.205C539.96 357.205 540.564 357.348 541.091 357.636C541.617 357.924 542.03 358.312 542.33 358.801C542.629 359.29 542.778 359.833 542.778 360.432C542.778 360.86 542.701 361.278 542.545 361.688C542.394 362.093 542.129 362.545 541.75 363.045C541.375 363.542 540.854 364.148 540.188 364.864L537.574 367.659V367.75H542.983V369H535.642Z" fill="white" fill-opacity="0.5"/>
<path d="M279.068 369.159C278.591 369.152 278.114 369.061 277.636 368.886C277.159 368.712 276.723 368.419 276.33 368.006C275.936 367.589 275.619 367.027 275.381 366.318C275.142 365.606 275.023 364.712 275.023 363.636C275.023 362.606 275.119 361.693 275.312 360.898C275.506 360.098 275.786 359.426 276.153 358.881C276.521 358.331 276.964 357.915 277.483 357.631C278.006 357.347 278.595 357.205 279.25 357.205C279.902 357.205 280.481 357.335 280.989 357.597C281.5 357.854 281.917 358.214 282.239 358.676C282.561 359.138 282.769 359.67 282.864 360.273H281.477C281.348 359.75 281.098 359.316 280.727 358.972C280.356 358.627 279.864 358.455 279.25 358.455C278.348 358.455 277.638 358.847 277.119 359.631C276.604 360.415 276.345 361.515 276.341 362.932H276.432C276.644 362.61 276.896 362.335 277.188 362.108C277.483 361.877 277.809 361.699 278.165 361.574C278.521 361.449 278.898 361.386 279.295 361.386C279.962 361.386 280.572 361.553 281.125 361.886C281.678 362.216 282.121 362.672 282.455 363.256C282.788 363.835 282.955 364.5 282.955 365.25C282.955 365.97 282.794 366.629 282.472 367.227C282.15 367.822 281.697 368.295 281.114 368.648C280.534 368.996 279.852 369.167 279.068 369.159ZM279.068 367.909C279.545 367.909 279.973 367.79 280.352 367.551C280.735 367.312 281.036 366.992 281.256 366.591C281.479 366.189 281.591 365.742 281.591 365.25C281.591 364.769 281.483 364.331 281.267 363.938C281.055 363.54 280.761 363.223 280.386 362.989C280.015 362.754 279.591 362.636 279.114 362.636C278.754 362.636 278.419 362.708 278.108 362.852C277.797 362.992 277.525 363.186 277.29 363.432C277.059 363.678 276.877 363.96 276.744 364.278C276.612 364.593 276.545 364.924 276.545 365.273C276.545 365.735 276.653 366.167 276.869 366.568C277.089 366.97 277.388 367.294 277.767 367.54C278.15 367.786 278.583 367.909 279.068 367.909Z" fill="white" fill-opacity="0.5"/>
<path d="M580.295 357.364V369H578.886V358.841H578.818L575.977 360.727V359.295L578.886 357.364H580.295ZM587.574 369.159C586.824 369.159 586.155 369.03 585.568 368.773C584.985 368.515 584.521 368.157 584.176 367.699C583.835 367.237 583.65 366.701 583.619 366.091H585.051C585.081 366.466 585.21 366.79 585.438 367.062C585.665 367.331 585.962 367.54 586.33 367.688C586.697 367.835 587.104 367.909 587.551 367.909C588.051 367.909 588.494 367.822 588.881 367.648C589.267 367.473 589.57 367.231 589.79 366.92C590.009 366.61 590.119 366.25 590.119 365.841C590.119 365.413 590.013 365.036 589.801 364.71C589.589 364.381 589.278 364.123 588.869 363.938C588.46 363.752 587.96 363.659 587.369 363.659H586.438V362.409H587.369C587.831 362.409 588.237 362.326 588.585 362.159C588.938 361.992 589.212 361.758 589.409 361.455C589.61 361.152 589.71 360.795 589.71 360.386C589.71 359.992 589.623 359.65 589.449 359.358C589.275 359.066 589.028 358.839 588.71 358.676C588.396 358.513 588.025 358.432 587.597 358.432C587.195 358.432 586.816 358.506 586.46 358.653C586.108 358.797 585.82 359.008 585.597 359.284C585.373 359.557 585.252 359.886 585.233 360.273H583.869C583.892 359.663 584.076 359.129 584.42 358.67C584.765 358.208 585.216 357.848 585.773 357.591C586.333 357.333 586.949 357.205 587.619 357.205C588.339 357.205 588.956 357.35 589.472 357.642C589.987 357.93 590.383 358.311 590.659 358.784C590.936 359.258 591.074 359.769 591.074 360.318C591.074 360.973 590.902 361.532 590.557 361.994C590.216 362.456 589.752 362.777 589.165 362.955V363.045C589.9 363.167 590.473 363.479 590.886 363.983C591.299 364.483 591.506 365.102 591.506 365.841C591.506 366.473 591.333 367.042 590.989 367.545C590.648 368.045 590.182 368.439 589.591 368.727C589 369.015 588.328 369.159 587.574 369.159Z" fill="white" fill-opacity="0.5"/>
<path d="M315.568 369L320.773 358.705V358.614H314.773V357.364H322.227V358.682L317.045 369H315.568Z" fill="white" fill-opacity="0.5"/>
<path d="M628.295 357.364V369H626.886V358.841H626.818L623.977 360.727V359.295L626.886 357.364H628.295ZM631.369 366.614V365.455L636.483 357.364H637.324V359.159H636.756L632.892 365.273V365.364H639.778V366.614H631.369ZM636.847 369V366.261V365.722V357.364H638.188V369H636.847Z" fill="white" fill-opacity="0.5"/>
<line x1="97.5" y1="329.012" x2="97.5" y2="7.01221" stroke="white" stroke-opacity="0.1"/>
<line x1="177.5" y1="329.012" x2="177.5" y2="7.01221" stroke="white" stroke-opacity="0.1"/>
<line x1="257.5" y1="329.012" x2="257.5" y2="7.01221" stroke="white" stroke-opacity="0.1"/>
<line x1="337.5" y1="329.012" x2="337.5" y2="7.01221" stroke="white" stroke-opacity="0.1"/>
<line x1="418.5" y1="329.012" x2="418.5" y2="7.01221" stroke="white" stroke-opacity="0.1"/>
<line x1="499.5" y1="329.012" x2="499.5" y2="7.01221" stroke="white" stroke-opacity="0.1"/>
<line x1="580.5" y1="329.012" x2="580.5" y2="7.01221" stroke="white" stroke-opacity="0.1"/>
<line x1="661.5" y1="329.012" x2="661.5" y2="7.01221" stroke="white" stroke-opacity="0.1"/>
<line x1="742.5" y1="329.012" x2="742.5" y2="7.01221" stroke="white" stroke-opacity="0.1"/>
<line x1="823.5" y1="329.012" x2="823.5" y2="7.01221" stroke="white" stroke-opacity="0.1"/>
<line x1="57.5" y1="329.012" x2="57.5" y2="7.01221" stroke="white" stroke-opacity="0.1"/>
<line x1="137.5" y1="329.012" x2="137.5" y2="7.01221" stroke="white" stroke-opacity="0.1"/>
<line x1="217.5" y1="329.012" x2="217.5" y2="7.01221" stroke="white" stroke-opacity="0.1"/>
<line x1="297.5" y1="329.012" x2="297.5" y2="7.01221" stroke="white" stroke-opacity="0.1"/>
<line x1="378.5" y1="329.012" x2="378.5" y2="7.01221" stroke="white" stroke-opacity="0.1"/>
<line x1="459.5" y1="329.012" x2="459.5" y2="7.01221" stroke="white" stroke-opacity="0.1"/>
<line x1="540.5" y1="329.012" x2="540.5" y2="7.01221" stroke="white" stroke-opacity="0.1"/>
<line x1="621.5" y1="329.012" x2="621.5" y2="7.01221" stroke="white" stroke-opacity="0.1"/>
<line x1="702.5" y1="329.012" x2="702.5" y2="7.01221" stroke="white" stroke-opacity="0.1"/>
<line x1="783.5" y1="329.012" x2="783.5" y2="7.01221" stroke="white" stroke-opacity="0.1"/>
<path d="M60 259C99.3333 243.667 136.351 215.593 190.5 210C245.774 204.291 276.286 242.204 331 232.5C404.334 219.493 411.896 134.247 485 120C545.023 108.302 578.876 153.523 639.5 145.5C706.16 136.678 794 69.5 794 69.5" stroke="url(#paint0_linear_107_130)" stroke-width="6"/>
<path d="M730.96 55L737.466 42.1307V42.017H729.966V40.4545H739.284V42.1023L732.807 55H730.96ZM746.282 55.1989C745.448 55.1989 744.698 55.0331 744.03 54.7017C743.363 54.3703 742.828 53.9157 742.425 53.3381C742.023 52.7604 741.802 52.1023 741.765 51.3636H743.469C743.535 52.0218 743.834 52.5663 744.364 52.9972C744.899 53.4233 745.538 53.6364 746.282 53.6364C746.878 53.6364 747.408 53.4967 747.873 53.2173C748.341 52.938 748.708 52.5545 748.973 52.0668C749.243 51.5743 749.378 51.018 749.378 50.3977C749.378 49.7633 749.239 49.1974 748.959 48.7003C748.685 48.1984 748.306 47.803 747.823 47.5142C747.34 47.2254 746.788 47.0786 746.168 47.0739C745.723 47.0691 745.266 47.1378 744.797 47.2798C744.328 47.4171 743.943 47.5947 743.64 47.8125L741.992 47.6136L742.873 40.4545H750.429V42.017H744.35L743.838 46.3068H743.924C744.222 46.0701 744.596 45.8736 745.046 45.7173C745.496 45.5611 745.964 45.483 746.452 45.483C747.342 45.483 748.135 45.696 748.831 46.1222C749.532 46.5436 750.081 47.1212 750.479 47.8551C750.882 48.589 751.083 49.4271 751.083 50.3693C751.083 51.2973 750.874 52.1259 750.458 52.8551C750.046 53.5795 749.478 54.1525 748.753 54.5739C748.029 54.9905 747.205 55.1989 746.282 55.1989ZM761.319 52.2727V51.5057C761.319 50.9754 761.428 50.4901 761.646 50.0497C761.868 49.6046 762.19 49.2495 762.612 48.9844C763.038 48.7145 763.554 48.5795 764.16 48.5795C764.775 48.5795 765.291 48.7145 765.708 48.9844C766.125 49.2495 766.44 49.6046 766.653 50.0497C766.866 50.4901 766.972 50.9754 766.972 51.5057V52.2727C766.972 52.803 766.863 53.2907 766.646 53.7358C766.433 54.1761 766.115 54.5312 765.694 54.8011C765.277 55.0663 764.766 55.1989 764.16 55.1989C763.544 55.1989 763.026 55.0663 762.604 54.8011C762.183 54.5312 761.863 54.1761 761.646 53.7358C761.428 53.2907 761.319 52.803 761.319 52.2727ZM762.768 51.5057V52.2727C762.768 52.7131 762.872 53.1084 763.08 53.4588C763.289 53.8045 763.648 53.9773 764.16 53.9773C764.657 53.9773 765.007 53.8045 765.211 53.4588C765.419 53.1084 765.523 52.7131 765.523 52.2727V51.5057C765.523 51.0653 765.424 50.6723 765.225 50.3267C765.026 49.9763 764.671 49.8011 764.16 49.8011C763.663 49.8011 763.305 49.9763 763.087 50.3267C762.874 50.6723 762.768 51.0653 762.768 51.5057ZM754.075 43.9489V43.1818C754.075 42.6515 754.183 42.1662 754.401 41.7259C754.624 41.2808 754.946 40.9257 755.367 40.6605C755.793 40.3906 756.309 40.2557 756.915 40.2557C757.531 40.2557 758.047 40.3906 758.464 40.6605C758.88 40.9257 759.195 41.2808 759.408 41.7259C759.621 42.1662 759.728 42.6515 759.728 43.1818V43.9489C759.728 44.4792 759.619 44.9669 759.401 45.4119C759.188 45.8523 758.871 46.2074 758.45 46.4773C758.033 46.7424 757.522 46.875 756.915 46.875C756.3 46.875 755.781 46.7424 755.36 46.4773C754.939 46.2074 754.619 45.8523 754.401 45.4119C754.183 44.9669 754.075 44.4792 754.075 43.9489ZM755.523 43.1818V43.9489C755.523 44.3892 755.628 44.7846 755.836 45.1349C756.044 45.4806 756.404 45.6534 756.915 45.6534C757.413 45.6534 757.763 45.4806 757.967 45.1349C758.175 44.7846 758.279 44.3892 758.279 43.9489V43.1818C758.279 42.7415 758.18 42.3485 757.981 42.0028C757.782 41.6525 757.427 41.4773 756.915 41.4773C756.418 41.4773 756.061 41.6525 755.843 42.0028C755.63 42.3485 755.523 42.7415 755.523 43.1818ZM754.614 55L764.614 40.4545H766.234L756.234 55H754.614Z" fill="#FF0000"/>
<defs>
<linearGradient id="paint0_linear_107_130" x1="60" y1="259" x2="794" y2="70" gradientUnits="userSpaceOnUse">
<stop stop-color="#00EF29"/>
<stop offset="1" stop-color="#FF1707"/>
</linearGradient>
</defs>
</svg>
