<svg width="91" height="80" viewBox="0 0 91 80" fill="none" xmlns="http://www.w3.org/2000/svg">
<path d="M22.2363 4.16113C30.4019 0.113799 39.7051 -1.02408 48.6054 0.936523C57.5056 2.89718 65.4695 7.83868 71.1786 14.9424C76.8878 22.0461 79.9999 30.8864 79.9999 40H69.9999C69.9999 23.4315 56.5685 10 39.9999 10C23.4314 10 9.99994 23.4315 9.99994 40C9.99997 56.5685 23.4314 70 39.9999 70C47.4006 70 54.1737 67.3181 59.4052 62.876L65.8759 70.5029C58.926 76.3985 50.171 79.7447 41.0605 79.9863C31.95 80.228 23.0299 77.3509 15.7773 71.832C8.5247 66.3132 3.37454 58.4828 1.17865 49.6377C-1.01724 40.7925 -0.127311 31.4625 3.70209 23.1924C7.53148 14.9224 14.0707 8.20845 22.2363 4.16113Z" fill="url(#paint0_linear_10_72)"/>
<path d="M75.9999 30C84.2841 30 90.9999 36.7157 90.9999 45C90.9999 53.2843 84.2841 60 75.9999 60C67.7156 60 60.9999 53.2843 60.9999 45C60.9999 36.7157 67.7156 30 75.9999 30ZM75.9999 40C73.2385 40 70.9999 42.2386 70.9999 45C70.9999 47.7614 73.2385 50 75.9999 50C78.7613 50 80.9999 47.7614 80.9999 45C80.9999 42.2386 78.7613 40 75.9999 40Z" fill="url(#paint1_linear_10_72)"/>
<defs>
<linearGradient id="paint0_linear_10_72" x1="114.725" y1="-59.5" x2="23.5821" y2="65.2935" gradientUnits="userSpaceOnUse">
<stop offset="0.518377" stop-color="#00FF1A"/>
<stop offset="1" stop-color="#007099"/>
</linearGradient>
<linearGradient id="paint1_linear_10_72" x1="85.3405" y1="32.5625" x2="73.9477" y2="48.1617" gradientUnits="userSpaceOnUse">
<stop offset="0.518377" stop-color="#00FF1A"/>
<stop offset="1" stop-color="#007099"/>
</linearGradient>
</defs>
</svg>
