<svg width="16" height="16" viewBox="0 0 16 16" fill="none" xmlns="http://www.w3.org/2000/svg">
<circle cx="7.99996" cy="8" r="2.33333" stroke="white" stroke-width="2"/>
<rect y="7.33333" width="4" height="1.33333" rx="0.666667" fill="white"/>
<rect y="7.33333" width="4" height="1.33333" rx="0.666667" fill="white"/>
<rect x="8.66663" width="4" height="1.33333" rx="0.666667" transform="rotate(90 8.66663 0)" fill="white"/>
<rect x="10.6666" y="4.35702" width="2.66667" height="1.33333" rx="0.666667" transform="rotate(-45 10.6666 4.35702)" fill="white"/>
<rect x="11.6429" y="10.6667" width="2.66667" height="1.33333" rx="0.666667" transform="rotate(45 11.6429 10.6667)" fill="white"/>
<rect x="2.66663" y="12.5523" width="2.66667" height="1.33333" rx="0.666667" transform="rotate(-45 2.66663 12.5523)" fill="white"/>
<rect x="3.44775" y="2.66667" width="2.66667" height="1.33333" rx="0.666667" transform="rotate(45 3.44775 2.66667)" fill="white"/>
<rect x="12" y="7.33333" width="4" height="1.33333" rx="0.666667" fill="white"/>
<rect x="8.66663" y="12" width="4" height="1.33333" rx="0.666667" transform="rotate(90 8.66663 12)" fill="white"/>
</svg>
